<svg height="512pt" viewBox="0 0 512 512" width="512pt" xmlns="http://www.w3.org/2000/svg"><path d="m286 512h-60c-6.921875 0-12.941406-4.734375-14.578125-11.460938l-6.183594-25.472656c-24.3125-5.601562-47.203125-15.082031-68.269531-28.277344l-22.183594 13.453126c-5.90625 3.585937-13.5 2.667968-18.386718-2.21875l-42.421876-42.425782c-4.886718-4.886718-5.804687-12.480468-2.21875-18.386718l13.453126-22.183594c-13.195313-21.066406-22.675782-43.957032-28.277344-68.265625l-25.472656-6.1875c-6.726563-1.628907-11.460938-7.652344-11.460938-14.574219v-60c0-6.921875 4.734375-12.945312 11.460938-14.574219l25.472656-6.1875c5.601562-24.3125 15.082031-47.203125 28.277344-68.269531l-13.453126-22.183594c-3.585937-5.90625-2.667968-13.5 2.21875-18.382812l42.421876-42.425782c4.886718-4.886718 12.480468-5.800781 18.386718-2.21875l22.183594 13.453126c21.070312-13.195313 43.960938-22.675782 68.269531-28.277344l6.1875-25.472656c1.632813-6.726563 7.652344-11.460938 14.574219-11.460938h60c6.921875 0 12.941406 4.734375 14.578125 11.460938l6.183594 25.472656c24.3125 5.601562 47.203125 15.082031 68.269531 28.277344l22.183594-13.453126c5.90625-3.585937 13.5-2.667968 18.386718 2.21875l42.421876 42.421876c4.886718 4.886718 5.804687 12.480468 2.21875 18.386718l-13.453126 22.183594c13.191407 21.066406 22.675782 43.957031 28.277344 68.269531l25.472656 6.183594c6.726563 1.632813 11.460938 7.65625 11.460938 14.578125v60c0 6.921875-4.734375 12.945312-11.460938 14.574219l-25.472656 6.1875c-5.601562 24.308593-15.082031 47.199219-28.277344 68.265625l13.453126 22.183594c3.585937 5.90625 2.667968 13.5-2.21875 18.386718l-42.421876 42.425782c-4.886718 4.886718-12.480468 5.804687-18.386718 2.21875l-22.183594-13.453126c-21.066406 13.195313-43.957031 22.675782-68.269531 28.277344l-6.183594 25.472656c-1.636719 6.726563-7.65625 11.460938-14.578125 11.460938zm0 0" fill="#4bb9ec"/><path d="m256 512h30c6.921875 0 12.941406-4.734375 14.578125-11.460938l6.183594-25.472656c24.3125-5.601562 47.203125-15.082031 68.269531-28.277344l22.183594 13.453126c5.90625 3.585937 13.5 2.667968 18.386718-2.21875l42.421876-42.425782c4.886718-4.886718 5.804687-12.480468 2.21875-18.386718l-13.453126-22.183594c13.195313-21.066406 22.675782-43.957032 28.277344-68.265625l25.472656-6.1875c6.726563-1.628907 11.460938-7.652344 11.460938-14.574219v-60c0-6.921875-4.734375-12.945312-11.460938-14.574219l-25.472656-6.1875c-5.601562-24.3125-15.082031-47.203125-28.277344-68.269531l13.453126-22.183594c3.585937-5.90625 2.667968-13.5-2.21875-18.382812l-42.421876-42.425782c-4.886718-4.886718-12.480468-5.804687-18.386718-2.21875l-22.183594 13.453126c-21.070312-13.195313-43.960938-22.675782-68.269531-28.277344l-6.1875-25.472656c-1.632813-6.726563-7.652344-11.460938-14.574219-11.460938h-30zm0 0" fill="#00abe9"/><g fill="#c6e2e7"><path d="m271 136v90c0 8.402344-6.597656 15-15 15s-15-6.597656-15-15v-90c0-8.402344 6.597656-15 15-15s15 6.597656 15 15zm0 0"/><path d="m271 286v90c0 8.402344-6.597656 15-15 15s-15-6.597656-15-15v-90c0-8.402344 6.597656-15 15-15s15 6.597656 15 15zm0 0"/><path d="m148.085938 345.984375c-5.1875 0-10.226563-2.679687-13.007813-7.5-4.148437-7.175781-1.6875-16.347656 5.492187-20.492187l81.941407-59.984376c7.121093-4.160156 16.335937-1.699218 20.496093 5.492188 4.144532 7.179688 1.683594 16.347656-5.496093 20.492188l-81.941407 59.984374c-2.359374 1.363282-4.9375 2.007813-7.484374 2.007813zm0 0"/></g><path d="m282 256c-5.183594 0-10.222656-2.679688-13.007812-7.5-4.144532-7.179688-1.683594-16.347656 5.492187-20.492188l81.945313-59.984374c7.132812-4.175782 16.316406-1.699219 20.492187 5.492187 4.144531 7.175781 1.683594 16.347656-5.492187 20.492187l-81.945313 59.984376c-2.355469 1.363281-4.933594 2.007812-7.484375 2.007812zm0 0" fill="#a8d3d8"/><path d="m363.914062 345.984375c-2.546874 0-5.125-.644531-7.484374-2.007813l-81.941407-59.984374c-7.179687-4.144532-9.640625-13.3125-5.496093-20.492188 4.148437-7.179688 13.316406-9.652344 20.496093-5.492188l81.941407 59.984376c7.179687 4.144531 9.640624 13.316406 5.492187 20.492187-2.78125 4.804687-7.820313 7.5-13.007813 7.5zm0 0" fill="#a8d3d8"/><path d="m230 256c-2.550781 0-5.128906-.644531-7.484375-2.007812l-81.945313-59.984376c-7.175781-4.144531-9.636718-13.316406-5.492187-20.492187 4.160156-7.191406 13.300781-9.667969 20.492187-5.492187l81.945313 59.984374c7.175781 4.144532 9.636719 13.3125 5.492187 20.492188-2.785156 4.804688-7.824218 7.5-13.007812 7.5zm0 0" fill="#c6e2e7"/><path d="m271 136v90c0 8.402344-6.597656 15-15 15v-120c8.402344 0 15 6.597656 15 15zm0 0" fill="#a8d3d8"/><path d="m271 286v90c0 8.402344-6.597656 15-15 15v-120c8.402344 0 15 6.597656 15 15zm0 0" fill="#a8d3d8"/><path d="m256 211c-24.902344 0-45 20.097656-45 45s20.097656 45 45 45 45-20.097656 45-45-20.097656-45-45-45zm0 0" fill="#c6e2e7"/><path d="m301 256c0 24.902344-20.097656 45-45 45v-90c24.902344 0 45 20.097656 45 45zm0 0" fill="#a8d3d8"/><path d="m271 256c0 8.402344-6.597656 15-15 15s-15-6.597656-15-15 6.597656-15 15-15 15 6.597656 15 15zm0 0" fill="#5a5a5a"/><path d="m256 271v-30c8.402344 0 15 6.597656 15 15s-6.597656 15-15 15zm0 0" fill="#444"/><path d="m256 91c-90.902344 0-165 74.097656-165 165s74.097656 165 165 165 165-74.097656 165-165-74.097656-165-165-165zm0 270c-57.898438 0-105-47.101562-105-105s47.101562-105 105-105 105 47.101562 105 105-47.101562 105-105 105zm0 0" fill="#5a5a5a"/><path d="m421 256c0 90.902344-74.097656 165-165 165v-60c57.898438 0 105-47.101562 105-105s-47.101562-105-105-105v-60c90.902344 0 165 74.097656 165 165zm0 0" fill="#444"/></svg>